<svg width="310" height="312" viewBox="0 0 310 312" fill="none" xmlns="http://www.w3.org/2000/svg">
<path d="M146.533 0.251528C109.467 3.85153 81.8668 14.6515 56.5334 35.5849C30.4001 57.3182 13.0668 84.5182 4.26678 117.718C-2.26656 142.918 -1.19989 178.918 6.80011 202.652C31.8668 276.918 103.6 321.318 178.933 309.318C253.467 297.452 309.2 231.852 309.2 156.118C309.2 130.785 304.267 109.585 293.067 86.7849C274.667 49.1849 240.933 20.1182 201.067 7.58487C184 2.25154 159.867 -0.948472 146.533 0.251528ZM176.533 10.2515C195.867 12.7849 218 21.3182 236.533 33.4515C248.933 41.4515 271.467 64.9182 278.933 77.5849C293.733 102.652 299.6 121.852 300.8 149.052C302 176.252 297.867 196.518 286.667 219.452C263.6 266.518 221.333 295.985 167.6 302.385C152.4 304.252 136.8 302.652 116.4 297.452C66.5335 284.518 26.1334 243.318 12.4001 191.452C9.06678 178.785 8.66678 175.318 8.66678 155.452C8.66678 135.852 9.06678 132.118 12.2668 120.385C17.2001 102.385 22.5334 90.1182 31.6001 75.9849C54.0001 41.4515 89.2001 17.8515 128.667 10.9182C148.133 7.45155 154.267 7.45153 176.533 10.2515Z" fill="#f49f1e"/>
<path d="M127.867 19.3182C99.2001 25.5849 76.1334 37.9849 57.8668 56.6515L52.6668 62.1182L60.6668 70.2515L68.8001 78.3849L89.6001 72.9182C100.933 69.8515 111.2 67.4515 112.4 67.4515C114.267 67.4515 128.267 84.1182 130.8 89.5849C131.867 91.8515 130.8 95.1849 125.6 106.252C122 113.852 114.267 130.118 108.667 142.252L98.2668 164.385L104.8 170.518C108.267 173.985 112.267 176.785 113.733 176.785C115.067 176.785 123.867 174.918 133.467 172.652C150.4 168.518 150.667 168.385 150.267 165.052C150 162.385 147.067 159.452 139.6 153.585C127.467 144.385 126.4 141.318 133.867 136.785C138.267 133.985 139.2 133.985 147.067 135.452C153.2 136.652 156.933 136.652 160.667 135.585C163.467 134.785 167.2 134.118 168.8 134.118C172.4 134.118 179.867 140.252 179.867 143.318C179.867 144.518 175.067 149.052 169.2 153.452C160.533 159.985 158.667 162.118 158.533 165.052C158.533 167.185 158.933 168.785 159.6 168.918C160.133 168.918 168.4 170.918 177.867 173.318L195.2 177.718L202.8 171.185L210.267 164.652L204 151.052C200.4 143.585 196.267 134.385 194.533 130.785C192.933 127.052 188.267 117.318 184.4 108.918C180.4 100.518 177.2 92.7849 177.2 91.7182C177.2 89.5849 188.8 73.4515 193.2 69.4515C196 66.9182 196.267 66.9182 216.267 71.9849C227.467 74.9182 237.2 77.4515 238 77.7182C239.6 78.2515 255.867 63.9849 255.867 61.9849C255.867 59.7182 241.6 47.0515 231.067 39.9849C208 24.6515 186.8 18.1182 157.867 17.3182C143.2 16.9182 136.8 17.3182 127.867 19.3182Z" fill="#f49f1e"/>
<path d="M40.4001 77.1849C23.8668 102.118 15.8668 127.852 15.8668 156.252V168.518L24.0001 180.918C32.4001 193.718 34.5334 194.518 34.5334 185.318C34.5334 179.718 37.7334 175.718 40.6668 177.585C42.6668 178.785 54.0001 198.918 76.4001 241.052C80.5334 249.052 84.5334 255.452 85.3334 255.452C86.0001 255.452 86.5334 252.918 86.5334 249.718C86.5334 242.518 89.6001 232.652 92.2668 230.918C94.8001 229.318 98.5334 231.985 98.5334 235.318C98.5334 238.918 109.867 257.852 116.133 264.518C127.467 276.918 144.533 290.118 153.333 293.452C156 294.518 173.333 282.918 184.133 273.052C194.133 263.718 203.067 251.318 207.867 239.718C214.267 224.785 219.6 227.718 222.267 247.585L223.333 256.118L225.733 252.118C226.933 249.852 236.667 232.252 247.2 212.785C263.733 182.252 266.667 177.452 269.333 177.452C272.533 177.452 272.933 178.252 275.467 188.652L276.533 193.185L284.933 180.785L293.2 168.385V156.252C293.2 134.918 288.133 113.318 278.933 94.9182C275.2 87.4516 266 72.5182 262.933 68.9182C262.133 67.8516 246.533 83.9849 246.533 85.8516C246.533 86.7849 249.6 95.8516 253.333 105.852C261.2 126.918 261.6 125.852 246.133 129.452C240.8 130.652 235.067 132.252 233.467 132.918C228.933 134.785 213.333 147.852 213.333 149.852C213.2 150.785 214.4 153.852 215.867 156.785C220.133 165.052 219.467 167.318 210.267 175.718L202 183.318L204.533 193.585C207.6 205.718 210 202.785 183.2 218.652C158.8 233.185 156.133 234.518 152.667 233.585C151.2 233.185 139.333 226.652 126.533 219.052C103.467 205.318 103.2 205.185 103.333 200.652C103.333 198.118 104.267 193.318 105.2 189.852L107.067 183.585L98.1334 175.452C93.2001 170.918 89.2001 166.518 89.2001 165.718C89.2001 164.785 90.8001 160.785 92.6668 156.785L96.0001 149.452L88.2668 142.518C78.5334 133.585 76.2668 132.385 63.3334 129.452C57.6001 128.118 52.1334 126.118 51.0668 125.185C49.6001 123.718 50.2668 120.652 55.4668 106.385C58.8001 97.0516 61.8668 88.3849 62.2668 87.0516C62.6668 85.3182 60.5334 82.2516 55.0668 76.6516C50.8001 72.3849 46.9334 68.7849 46.5334 68.7849C46.1334 68.7849 43.3334 72.5182 40.4001 77.1849Z" fill="#f49f1e"/>
<path d="M105.2 77.0515C102.667 77.7182 100.267 78.6515 100 78.9182C99.7334 79.1849 101.067 81.5849 103.2 84.1182C106.4 88.3849 107.333 88.9182 112.267 88.5182C115.2 88.2515 117.867 87.4515 118 86.7849C118.267 85.9849 116.533 83.3182 114.133 80.6515C110.133 76.1182 109.6 75.8515 105.2 77.0515Z" fill="#f49f1e"/>
<path d="M193.6 81.8515C189.333 87.0515 189.333 87.1849 192.267 87.9849C198.4 89.5849 201.867 88.6515 205.733 83.9849C207.867 81.4515 209.2 79.0515 208.8 78.6515C208.4 78.2515 205.733 77.5849 202.933 77.3182C198.267 76.6515 197.467 77.0515 193.6 81.8515Z" fill="#f49f1e"/>
<path d="M80.6668 83.9849C72.4001 86.5182 71.2001 87.3182 69.4668 91.4515C66.0001 99.8515 59.8668 117.452 59.8668 118.918C59.8668 119.718 63.6001 121.185 68.2668 122.118C78.6668 124.252 80.0001 125.052 90.2668 133.718C94.9334 137.585 99.0668 140.785 99.6001 140.785C100.667 140.785 118.4 103.052 119.467 98.7849C120 96.2515 119.467 96.1182 112.267 96.6515L104.533 97.0515L89.8668 81.0515L80.6668 83.9849Z" fill="#f49f1e"/>
<path d="M211.733 88.9182L205.067 96.6515L188.267 97.4515L197.867 118.518C203.2 130.118 207.867 139.852 208.267 140.385C208.8 140.785 212.8 137.985 217.333 134.252C227.6 125.585 230.533 124.118 240.933 122.118C249.6 120.385 249.867 120.118 248 115.185C247.333 113.452 244.533 106.385 242 99.4515L237.2 86.6515L227.867 83.8515L218.533 81.1849L211.733 88.9182Z" fill="#f49f1e"/>
<path d="M139.867 142.785C139.867 143.718 153.333 154.118 154.533 154.118C156.133 154.118 169.467 143.185 168.667 142.518C168.267 142.118 164.933 142.918 161.2 144.118C155.067 146.118 154 146.118 148.267 144.252C141.733 141.985 139.867 141.718 139.867 142.785Z" fill="#f49f1e"/>
<path d="M132.133 181.318L114.4 185.452L113.067 190.785C112.267 193.718 111.467 197.052 111.067 198.118C110.667 199.585 116.8 203.852 132.533 213.185L154.533 226.118L176 213.318L197.333 200.518L196.533 195.052C196 191.985 195.067 188.518 194.4 187.318C193.333 185.185 159.467 176.518 153.2 176.918C151.333 177.052 141.867 178.918 132.133 181.318Z" fill="#f49f1e"/>
<path d="M280.933 201.052C273.067 212.385 268 213.052 267.867 202.785C267.733 193.852 265.733 195.318 257.867 209.718C226.8 267.452 222.933 274.785 224.133 275.185C226.267 276.118 246.933 259.985 255.333 250.918C265.333 240.252 272.933 229.052 279.067 216.118C284 205.852 288.267 194.118 287.333 193.185C287.067 192.918 284.133 196.385 280.933 201.052Z" fill="#f49f1e"/>
<path d="M24.6668 203.718C26.6668 209.052 29.4668 215.852 30.9334 218.785C34.9334 226.918 46.2668 243.318 52.4001 249.852C61.0668 259.318 81.7334 275.452 85.0668 275.452C85.7334 275.452 83.8668 270.785 80.6668 265.052C72.9334 251.052 57.6001 222.785 49.7334 207.852C46.1334 201.052 42.8001 195.452 42.2668 195.452C41.6001 195.452 41.2001 197.585 41.2001 200.252C41.2001 205.852 39.2001 210.118 36.5334 210.118C35.4668 210.118 32.0001 206.518 28.8001 202.118C25.7334 197.718 22.8001 194.118 22.2668 194.118C21.7334 194.118 22.8001 198.518 24.6668 203.718Z" fill="#f49f1e"/>
<path d="M94.1334 251.452C92.8001 256.385 93.0668 264.385 94.9334 273.985L96.5334 282.652L109.6 287.052C116.933 289.452 125.867 291.718 129.6 292.118L136.533 292.918L133.2 290.518C119.733 280.785 104 263.852 96.4001 250.785C95.0668 248.385 94.9334 248.518 94.1334 251.452Z" fill="#f49f1e"/>
<path d="M207.6 257.452C200.8 267.718 186.133 283.052 178.267 288.385C175.467 290.252 173.2 292.252 173.2 292.785C173.2 294.252 193.733 289.585 203.867 285.718L212.533 282.518L213.6 274.652C214.133 270.385 214.4 262.518 214.267 257.452L213.867 248.118L207.6 257.452Z" fill="#f49f1e"/>
</svg>
