<svg width="483" height="166" viewBox="0 0 483 166" fill="none" xmlns="http://www.w3.org/2000/svg">
<path d="M0 165.333H482.667V0H0V165.333ZM108 9.2C139.467 20.1333 160.267 49.6 160.133 83.2C160.133 125.333 125.467 159.867 83.0667 160C69.8667 160 61.2 158 48.2667 151.867C21.4667 139.067 5.06667 112.933 4.93333 82.6667C4.93333 60.2667 11.7333 44 27.8667 27.8667C38.5333 17.2 48.8 11.2 62.6667 7.33333C73.4667 4.39999 96.6667 5.33333 108 9.2ZM478.667 36.2667C478.667 42 477.333 42.8 475.333 38.2667C474.267 36 472.667 35.2 468.4 34.9333L462.667 34.5333V51.7333C462.667 68.1333 462.8 69.0667 465.733 71.0667C468.533 73.0667 468.267 73.2 459.6 73.2C453.867 73.3333 450.8 72.8 451.333 72C451.733 71.2 453.067 70.6667 454.133 70.6667C455.6 70.6667 456 67.4667 456 52.6667V34.6667H451.333C447.867 34.6667 446.133 35.4667 444.533 38C441.067 43.4667 439.733 40.6667 442 32.6667C442.133 31.8667 449.467 31.3333 460.533 31.3333H478.667V36.2667ZM220.8 35.2C223.733 39.3333 223.067 44.8 219.333 47.7333L216 50.4L219.867 52C227.733 55.2 228.133 65.3333 220.4 70.2667C217.6 72.1333 214.133 72.6667 205.067 72.6667C194 72.6667 190.8 71.8667 195.333 70.1333C196.933 69.6 197.333 66.2667 197.333 52.1333C197.333 37.0667 197.067 34.6667 195.067 33.3333C193.2 32.2667 196 32 205.733 32.2667C216.933 32.6667 219.2 33.0667 220.8 35.2ZM265.333 32.9333C265.333 33.6 265.733 35.3333 266.133 36.9333C267.2 40.6667 264.533 41.0667 263.333 37.3333C262.667 35.0667 261.333 34.6667 255.2 34.6667H248V50.6667H253.067C258.533 50.6667 260.533 49.7333 261.733 46.6667C262.133 45.6 262.533 47.4667 262.533 50.9333L262.667 57.3333L259.867 54.5333C258 52.6667 255.867 52 252.933 52.2667C248.8 52.6667 248.667 52.8 248.267 59.7333C247.733 68.8 249.333 70.6667 257.333 70.6667C262.667 70.6667 264.267 70.1333 266.533 67.2L269.333 63.6V67.0667C269.333 73.0667 263.733 74.4 245.467 72.5333C238.8 71.7333 237.733 71.3333 239.467 70C242.667 67.7333 242.267 36.1333 239.067 33.6C237.2 32.2667 239.333 32 251.067 32C258.933 32 265.333 32.4 265.333 32.9333ZM302 46.6667C309.2 54.6667 315.2 61.3333 315.467 61.3333C315.733 61.3333 316 55.4667 316 48.2667C316 35.8667 315.867 34.9333 313.067 33.6C310.4 32.4 311.067 32.1333 317.2 32.1333C324.133 32 324.267 32 321.467 34.2667C318.933 36.5333 318.667 38.2667 318.4 55.3333L318 73.8667L303.467 57.6C295.6 48.6667 288.533 41.3333 287.867 41.3333C286.533 41.3333 286.267 58.1333 287.467 65.6C288 68.6667 289.067 70.6667 290.133 70.6667C291.2 70.6667 292 71.3333 292 72.1333C292 73.0667 290.8 73.3333 289.067 72.8C287.333 72.4 284.533 72 282.667 72C279.733 71.8667 279.6 71.7333 281.733 70.5333C283.733 69.3333 284 67.0667 284 52.6667C284 37.0667 283.867 36 281.067 34.1333C278.133 32 278.267 32 283.467 32C288.8 32 289.467 32.5333 302 46.6667ZM363.2 35.4667C364.667 41.2 361.6 41.2 359.6 35.6C359.467 34.9333 356.267 34.4 352.667 34.2667L346 34V50L350.533 50.4C354.133 50.8 355.733 50.1333 357.6 47.7333L360 44.6667V57.8667L357.333 54.9333C355.467 53.0667 352.933 52 350 52H345.333V59.7333C345.333 64 346 68.1333 346.933 69.0667C347.867 70 351.067 70.6667 354.267 70.6667C358.667 70.6667 360.667 69.8667 363.333 67.0667C366.8 63.3333 367.467 64.2667 365.867 70.2667C365.2 72.9333 364.133 73.3333 358.8 73.3333C346.8 73.3333 334.267 71.6 336.533 70.4C338.267 69.3333 338.667 66.4 338.667 52C338.667 37.0667 338.4 34.6667 336.4 33.4667C334.667 32.4 337.867 32.1333 348.133 32H362.4L363.2 35.4667ZM405.467 40.6667L402.933 37.4667C401.2 35.3333 398.667 34.1333 394.267 33.7333L388 32.9333V50.6667H393.333C397.733 50.6667 398.933 50.1333 400 47.6C400.933 45.2 401.2 46 401.2 51.2C401.333 56.8 401.067 57.4667 399.733 55.7333C398.8 54.5333 395.733 53.0667 393.067 52.6667L388 51.7333V60.4C388 67.8667 388.4 69.3333 391.067 71.0667C393.867 72.9333 393.467 72.9333 385.067 72.9333C376.267 72.8 376.133 72.8 378.667 70.4C381.067 68.1333 381.333 66.1333 381.333 52C381.333 37.0667 381.2 36 378.4 34C375.467 32 376.267 32 390 32.2667L404.667 32.6667L405.467 40.6667ZM431.333 33.3333C430.933 34 429.6 34.6667 428.533 34.6667C427.067 34.6667 426.667 37.6 426.667 50.5333C426.667 67.4667 427.2 70.6667 430.133 70.6667C431.2 70.6667 432 71.2 432 72C432 72.8 428.4 73.3333 424 73.3333C416.4 73.3333 413.6 71.8667 418 70.1333C419.6 69.6 420 66.2667 420 52C420 35.2 419.867 34.5333 417.067 33.3333C414.8 32.5333 416.267 32.1333 423.067 32.1333C428.8 32 431.867 32.5333 431.333 33.3333ZM213.333 98.9333C213.2 101.733 213.067 101.733 211.867 99.6C211.067 98.1333 208.933 97.3333 206 97.3333C201.333 97.3333 201.333 97.3333 201.333 103.333C201.333 108.667 201.6 109.333 204.4 109.333C206.133 109.333 208.133 108.667 209.067 107.733C210.267 106.533 210.667 107.067 210.533 110C210.533 112.267 210.133 113.2 209.733 112.267C209.467 111.467 207.333 110.667 205.2 110.667C201.6 110.667 201.333 111.067 201.333 115.733C201.333 118.533 202 121.467 202.933 122.4C204.133 123.6 203.467 124 199.6 124C195.067 124 194.667 123.733 196 121.467C197.867 117.867 197.733 99.6 195.733 97.6C194.533 96.4 196.267 96 203.733 96C212.8 96 213.333 96.1333 213.333 98.9333ZM229.733 96.9333C228.533 97.3333 228 101.2 228 109.333C228 119.2 228.4 121.467 230.4 122.533C232.133 123.6 231.2 123.867 226 123.867C220.8 123.867 219.867 123.6 221.733 122.533C223.6 121.467 224 119.2 224 109.333C224 99.2 223.733 97.4667 221.733 96.9333C220.4 96.5333 222 96.2667 225.333 96.2667C228.667 96.2667 230.533 96.5333 229.733 96.9333ZM254.667 106C259.333 111.467 263.2 116 263.467 116C263.733 116 264 111.867 264 106.8C264 99.0667 263.6 97.4667 261.733 96.9333C260.4 96.5333 261.733 96.2667 264.533 96.1333C269.067 96 269.467 96.2667 267.6 97.6C265.867 98.9333 265.333 102 265.067 111.6L264.667 124L255.6 113.333C250.667 107.467 246 102.667 245.333 102.667C244.533 102.667 244 106.667 244 112C244 119.333 244.4 121.467 246.4 122.533C248.267 123.733 247.867 123.867 244.133 124C240.533 124 239.867 123.6 241.067 122.4C242 121.467 242.667 116.4 242.667 109.2C242.667 99.2 242.267 97.4667 240.4 96.9333C239.067 96.5333 239.867 96.2667 242.133 96.1333C245.733 96 247.333 97.3333 254.667 106ZM294.4 108.133C296.933 114.267 299.867 120.4 300.933 121.6C302.933 123.867 302.8 124 298.267 124C294.267 124 293.733 123.6 294.267 121.467C295.467 116.933 292.4 113.333 287.333 113.333C282.267 113.333 279.2 116.933 280.4 121.467C280.933 123.467 280.4 124 277.733 124C274.533 124 274.4 123.867 276.267 121.6C277.467 120.4 280.267 114.133 282.8 107.6C285.2 101.2 287.733 96.1333 288.533 96.4C289.333 96.6667 292 101.867 294.4 108.133ZM317.733 98.9333C318.933 100.667 322.933 105.333 326.533 109.333L333.2 116.667L333.333 107.067C333.333 99.0667 332.933 97.4667 331.067 96.9333C329.733 96.5333 331.067 96.2667 333.867 96.1333C338.4 96 338.8 96.2667 336.933 97.6C335.2 98.9333 334.667 102 334.4 111.733L334 124.267L324 112.533L314 100.667L313.6 110.667C313.333 118.933 313.6 120.933 315.467 122.267C317.6 123.733 317.333 124 313.333 124C309.867 124 309.2 123.6 310.4 122.4C311.333 121.467 312 116.533 312 109.733C312 100.667 311.6 98.5333 309.733 97.4667C307.733 96.2667 308 96.1333 311.467 96C314.4 96 316.4 96.9333 317.733 98.9333ZM368.533 96.8C369.733 97.2 370.667 98.9333 370.667 100.4C370.667 103.2 370.667 103.2 368 100.267C364.4 96.4 357.867 96.4 353.733 100.267C349.333 104.4 349.333 114.8 354 119.333C358.267 123.733 365.6 123.867 368.533 119.733C370.267 117.333 370.667 117.2 370.667 118.933C370.667 122.133 366.533 124 360 124C352.533 124 345.333 117.333 345.333 110.4C345.467 104.933 348 100.133 352.133 97.8667C355.467 96 364.933 95.4667 368.533 96.8ZM397.333 96.5333C397.333 96.8 397.733 98.2667 398.133 99.6C398.8 101.867 398.8 101.867 396.933 99.6C395.467 97.8667 393.467 97.3333 390.4 97.6C386.667 98 386 98.5333 385.6 101.867C385.333 104 385.733 106.267 386.533 107.067C387.333 107.867 387.333 109.067 386.4 110.667C385.6 112 385.333 114.933 385.867 117.733C386.8 122.4 387.067 122.667 392 122.667C395.6 122.667 397.6 121.867 398.533 120.267C399.733 118.267 399.867 118.267 400 120.933C400 123.867 399.6 124 389.067 123.867C382.933 123.867 378.8 123.467 379.733 123.067C380.8 122.667 381.333 118.667 381.333 110C381.333 101.333 380.8 97.3333 379.733 96.9333C378.8 96.5333 382.4 96.1333 387.733 96.1333C392.933 96 397.333 96.2667 397.333 96.5333ZM396 109.6C396 113.467 395.867 113.6 394.133 111.333C392.8 109.467 392.667 108.4 393.867 107.2C395.867 104.8 396 104.8 396 109.6Z" fill="#f49f1e"/>
<path d="M64.1333 12.8C39.2 19.4667 17.4667 41.6 12 66C9.6 76.5333 10.1333 92.8 13.2 102.667C22.6667 133.2 51.2 154.667 82 154.667C102.267 154.667 119.2 147.6 133.333 133.333C147.733 118.933 154.667 102.4 154.667 82.6667C154.667 62.8 147.733 46.4 133.067 31.6C123.733 22.1333 111.067 14.9333 98.5333 12.1333C90.1333 10.1333 72.5333 10.5333 64.1333 12.8ZM96.2667 16.1333C121.867 21.4667 141.867 40.9333 148.667 67.3333C156.133 96.6667 140.8 128.933 112.8 142.667C91.3333 153.2 70.8 152.667 49.2 141.2C34.4 133.2 20 114.267 16.1333 97.3334C11.2 75.8667 18.8 50 34.8 34.5333C51.0667 18.5333 74.4 11.6 96.2667 16.1333Z" fill="#f49f1e"/>
<path d="M71.0667 18.8C67.3333 19.4667 60.8 21.4667 56.5333 23.3333C48.6667 26.8 36.5333 35.3333 35.4667 38C35.2 38.9333 36.6667 41.0667 38.9333 42.6667L43.0667 45.7333L63.0667 40.9333L66.8 45.4667C68.9333 48 70.6667 50.8 70.6667 51.8667C70.6667 52.9333 67.7333 60.2667 64 68.1333C60.4 76 57.3333 83.3333 57.3333 84.4C57.3333 85.4667 58.5333 87.3333 60 88.6667C62.5333 90.9333 63.4667 91.0667 71.0667 89.4667C75.6 88.5333 79.7333 87.4667 80.2667 87.2C81.6 86.2667 81.6 82.6667 80.2667 82.6667C79.7333 82.6667 77.2 80.9333 74.6667 78.8C70.9333 75.7333 70.4 74.5333 71.6 73.2C74 70.8 90.5333 70.6667 92.9333 73.0667C94.6667 74.8 94.1333 75.7333 89.0667 80.1333C82.2667 86.1333 82.8 87.2 94.2667 89.4667C101.867 91.0667 102.8 90.9333 105.333 88.6667C106.8 87.3333 108 85.4667 108 84.4C108 83.4667 104.667 75.7333 100.667 67.2L93.3333 51.7333L97.4667 46.5333C102.133 40.6667 102.4 40.5333 111.467 43.3333C120.533 46.1333 123.067 45.8667 126.667 42L129.867 38.6667L125.467 34.1333C119.733 28.1333 106.4 21.7333 95.0667 19.3333C85.0667 17.2 81.3333 17.0667 71.0667 18.8Z" fill="#f49f1e"/>
<path d="M28.1333 47.8667C21.8667 57.6 18.5333 67.3334 17.7333 78.2667C17.0667 87.3334 17.2 88.4 20.6667 93.3334C24.4 98.6667 26.6667 99.2 26.6667 94.5333C26.6667 89.4667 30.1333 92.1333 34.8 101.067C37.3333 106 41.8667 114.4 44.8 119.867L50 129.733L51.2 122.933C52.5333 114.933 54.8 114 57.0667 120.533C59.6 127.6 67.0667 136.4 75.2 142C82 146.667 82.9333 146.933 86 145.333C93.3333 141.333 103.867 130.4 107.333 123.2C111.2 115.067 112.667 115.067 114.4 123.333L115.467 128.667L125.2 110.267C130.533 100.267 135.733 92 136.667 92C137.733 92 138.667 93.6 138.933 95.6L139.333 99.3334L143.333 94.1333C146.933 89.3333 147.333 88 147.067 79.6C146.8 69.0667 142.933 56.6667 137.467 48.6667C133.333 42.6667 132.667 42.4 128 45.7333L124.667 48L127.733 56.6667C131.333 67.2 131.333 68 127.733 68C124 68 114.4 72.6667 111.467 75.7333C109.733 77.7333 109.6 78.8 110.933 82.2667C112.4 86.1334 112.267 86.6667 108.267 89.8667C104.533 93.0667 104.267 93.7334 105.6 97.3334C106.267 99.6 106.667 102.133 106.267 103.2C105.467 105.2 85.3333 117.333 82.8 117.333C80.6667 117.333 58.6667 104.133 58.6667 102.933C58.6667 102.4 59.2 100 59.8667 97.7333C61.0667 93.7333 60.8 93.0667 56.4 89.6C51.7333 85.8667 51.7333 85.8667 53.8667 81.7334C55.8667 77.6 55.8667 77.6 51.0667 74C48.5333 71.8667 43.4667 69.4667 39.8667 68.4L33.4667 66.5333L40.1333 48.9333L36.2667 44.9333L32.4 41.0667L28.1333 47.8667Z" fill="#f49f1e"/>
<path d="M58.8 45.2C56.1333 46.9333 58 50.4 62 51.4667C66.6667 52.6667 67.3333 51.6 64.6667 47.4667C62.1333 43.7333 61.6 43.4667 58.8 45.2Z" fill="#f49f1e"/>
<path d="M100.933 47.0667L98 50L101.067 50.4C104.133 50.8 108 48.6667 108 46.6667C108 44.1333 103.733 44.2667 100.933 47.0667Z" fill="#f49f1e"/>
<path d="M46.5333 48.1333C44.1333 49.0667 42.4 51.3333 40.5333 56.2667C39.2 60.1333 37.8667 63.6 37.6 64.1333C37.3333 64.6667 39.8667 65.6 43.2 66.5333C46.4 67.3333 50.9333 69.4667 53.2 71.3333L57.2 74.8L62 65.4667C64.5333 60.2667 66.6667 55.4667 66.6667 54.6667C66.6667 54 64.6667 53.3333 62.1333 53.3333C58.8 53.3333 57.0667 52.5333 55.4667 50C53.0667 46.4 51.8667 46.1333 46.5333 48.1333Z" fill="#f49f1e"/>
<path d="M110 50.1333C108.533 52.5333 106.667 53.3333 103.333 53.3333C100.8 53.3333 98.6667 54 98.6667 54.6667C98.6667 55.4667 100.8 60.2667 103.333 65.4667L108.133 74.8L112.133 71.4667C114.267 69.6 118.533 67.3333 121.467 66.4C126 65.0667 126.667 64.4 126.133 62C125.333 58.8 121.467 49.3333 120.933 49.3333C120.8 49.3333 118.8 48.8 116.4 48.1333C112.667 47.0667 111.867 47.3333 110 50.1333Z" fill="#f49f1e"/>
<path d="M78.4 77.7334C80.8 80.1334 81.6 80.2667 85.2 78.6667C91.0667 76.2667 90.2667 75.2 82.5333 75.0667L75.7333 74.9333L78.4 77.7334Z" fill="#f49f1e"/>
<path d="M71.0667 92.4C64.1333 94.4 62.2667 96.1334 62.9333 100.133C63.4667 104.133 80 114 84.4 112.8C86 112.4 90.8 109.867 95.0667 107.333C100.667 103.733 102.667 101.733 102.667 99.3334C102.667 95.3334 100.667 93.8667 92.2667 92.1333C83.7333 90.4 78.5333 90.4 71.0667 92.4Z" fill="#f49f1e"/>
<path d="M29.3333 103.067C29.3333 107.333 26 108 24.6667 104C23.7333 101.2 21.3333 100.267 21.3333 102.667C21.3333 106 30 120.933 35.3333 126.533C41.6 133.2 49.3333 138.4 49.3333 136C49.3333 134.4 32.5333 102.8 30.5333 100.667C29.8667 100 29.3333 100.933 29.3333 103.067Z" fill="#f49f1e"/>
<path d="M132.4 104.133C126.8 113.333 115.733 136.133 116.4 136.8C117.6 138.133 127.733 129.2 133.2 122.133C138.4 115.2 144 105.2 144 102.667C144 100.267 141.6 101.2 140.667 104C139.467 107.733 137.733 107.333 136.4 103.067L135.2 99.4667L132.4 104.133Z" fill="#f49f1e"/>
<path d="M53.8667 132.133C55.0667 141.067 56 142.133 64.4 144.667C75.3333 147.867 77.0667 147.333 70.5333 142.267C67.3333 139.867 62.6667 135.2 60.2667 132C53.8667 123.6 52.8 123.6 53.8667 132.133Z" fill="#f49f1e"/>
<path d="M107.867 128.8C106.933 130.667 102.533 135.467 98.2667 139.467C90 147.2 90.2667 147.867 100.933 144.667C109.333 142.133 110.533 140.667 111.6 132.133C112.4 124.667 110.933 123.2 107.867 128.8Z" fill="#f49f1e"/>
<path d="M204.933 34.2667C204.4 34.6667 204 38.2667 204 42.1333C204 50 206 51.7333 211.733 48.9333C216.8 46.6667 217.467 38.5333 213.067 35.4667C210 33.2 206.4 32.6667 204.933 34.2667Z" fill="#f49f1e"/>
<path d="M204.667 70L209.467 70.4C215.733 70.9334 218.667 68 218.667 61.4667C218.667 55.0667 215.467 52 208.8 52H203.867L204.667 70Z" fill="#f49f1e"/>
<path d="M285.467 104.667C284.667 106.8 283.6 109.467 283.333 110.267C282.933 111.467 284.133 112 286.667 112C291.067 112 291.467 110.667 288.8 104.667L286.933 100.667L285.467 104.667Z" fill="#f49f1e"/>
</svg>
